<!-- Generator: Adobe Illustrator 21.0.2, SVG Export Plug-In  -->
<svg version="1.1"
	 xmlns="http://www.w3.org/2000/svg" xmlns:xlink="http://www.w3.org/1999/xlink" xmlns:a="http://ns.adobe.com/AdobeSVGViewerExtensions/3.0/"
	 x="0px" y="0px" width="91.707px" height="126.058px" viewBox="0 0 91.707 126.058"
	 style="overflow:scroll;enable-background:new 0 0 91.707 126.058;" xml:space="preserve">
<style type="text/css">
	.st0{font-family:'AzoSansUber-Regular';}
	.st1{font-size:53.7559px;}
</style>
<defs>
</defs>
<g>
	<path d="M2.365,7.417h14.568l11.45,16.611l0.107-0.054V7.417h14.407v38.92H28.33l-11.45-16.611l-0.107,0.054v16.557H2.365V7.417z"
		/>
	<path d="M68.485,6.826c12.203,0,21.717,8.762,21.717,20.051s-9.515,20.051-21.717,20.051c-12.203,0-21.718-8.762-21.718-20.051
		S56.282,6.826,68.485,6.826z M68.485,33.167c3.333,0,6.021-2.688,6.021-6.021c0-3.333-2.688-6.021-6.021-6.021
		c-3.333,0-6.021,2.688-6.021,6.021C62.464,30.479,65.152,33.167,68.485,33.167z"/>
	<path d="M2.365,71.924h15.966c8.01,0,18.922,1.989,18.922,12.364c0,4.193-1.989,7.203-4.892,9.246l8.87,17.31H24.406L18.6,98.05
		h-0.215v12.794H2.365V71.924z M19.567,89.126c2.527,0,3.655-1.344,3.655-3.01s-1.183-2.957-3.655-2.957h-1.183v5.967H19.567z"/>
	<path d="M56.497,71.924h15.321l14.837,38.92h-17.31l-1.344-5.107h-8.923l-1.505,5.107H41.661L56.497,71.924z M65.421,95.954
		l-1.72-7.902h-0.107l-1.72,7.902H65.421z"/>
</g>
</svg>