<svg id="Layer_1" data-name="Layer 1" xmlns="http://www.w3.org/2000/svg" viewBox="0 0 173.11 180"><defs><style>.cls-1{fill:#fff;}</style></defs><title>icons_all</title><path class="cls-1" d="M173.11,40.71a15.9,15.9,0,0,0-15.9-15.9H15.9A15.9,15.9,0,0,0,0,40.71V138.1A15.9,15.9,0,0,0,15.9,154H157.21a15.9,15.9,0,0,0,15.9-15.9Zm-157.21-8H157.21a8.67,8.67,0,0,1,1.25.12L92.3,102a8,8,0,0,1-11.24.22l-.23-.22L14.65,32.88A8.67,8.67,0,0,1,15.9,32.76ZM8,40.71a7.81,7.81,0,0,1,.54-2.78L50.22,81.56,8,133.51ZM157.21,146.05H15.9a8,8,0,0,1-5.8-2.54L55.77,87.4l19.32,20.19a15.9,15.9,0,0,0,22.48.48l.47-.48,18-18.86L163,143.57a8,8,0,0,1-5.79,2.44Zm7.95-12.18-43.56-51,43-45a8,8,0,0,1,.53,2.78Z"/></svg>