<svg id="Layer_1" data-name="Layer 1" xmlns="http://www.w3.org/2000/svg" viewBox="0 0 128.02 180"><defs><style>.cls-1{fill:#fff;}</style></defs><title>icons_all</title><path class="cls-1" d="M64,37.65c17.09,0,19.12.07,25.87.38a35.16,35.16,0,0,1,11.88,2.2,21.22,21.22,0,0,1,12.15,12.15,35.49,35.49,0,0,1,2.21,11.89c.3,6.75.37,8.77.37,25.86s-.07,19.12-.37,25.87a35.35,35.35,0,0,1-2.21,11.88A21.22,21.22,0,0,1,101.76,140a35.35,35.35,0,0,1-11.88,2.21c-6.75.3-8.78.37-25.87.37s-19.12-.07-25.86-.37A35.37,35.37,0,0,1,26.26,140a19.8,19.8,0,0,1-7.36-4.79,19.8,19.8,0,0,1-4.79-7.36A35.16,35.16,0,0,1,11.91,116c-.31-6.75-.38-8.78-.38-25.87s.07-19.11.38-25.86a35.3,35.3,0,0,1,2.2-11.89A19.8,19.8,0,0,1,18.9,45a19.8,19.8,0,0,1,7.36-4.79A35.18,35.18,0,0,1,38.15,38c6.75-.31,8.77-.38,25.86-.38m0-11.53c-17.38,0-19.56.07-26.39.39a47.06,47.06,0,0,0-15.54,3,31.55,31.55,0,0,0-11.34,7.38A31.55,31.55,0,0,0,3.36,48.2a47.06,47.06,0,0,0-3,15.54C.07,70.57,0,72.75,0,90.13s.07,19.57.39,26.39a47,47,0,0,0,3,15.54,32.69,32.69,0,0,0,18.72,18.72,46.77,46.77,0,0,0,15.54,3c6.83.31,9,.38,26.39.38s19.57-.07,26.39-.38a46.72,46.72,0,0,0,15.54-3,32.69,32.69,0,0,0,18.72-18.72,46.72,46.72,0,0,0,3-15.54c.31-6.82.38-9,.38-26.39s-.07-19.56-.38-26.39a46.77,46.77,0,0,0-3-15.54,32.69,32.69,0,0,0-18.72-18.72,47,47,0,0,0-15.54-3c-6.82-.32-9-.39-26.39-.39Z"/><path class="cls-1" d="M64,57.26A32.87,32.87,0,1,0,96.88,90.13,32.87,32.87,0,0,0,64,57.26Zm0,54.21A21.34,21.34,0,1,1,85.35,90.13,21.34,21.34,0,0,1,64,111.47Z"/><circle class="cls-1" cx="98.18" cy="55.96" r="7.68"/></svg>