<svg id="Layer_1" data-name="Layer 1" xmlns="http://www.w3.org/2000/svg" viewBox="0 0 76.66 180"><defs><style>.cls-1{fill:#fff;}</style></defs><title>icons_all</title><path class="cls-1" d="M76.1,145.94c-4.37,4.67-14.49,7.83-23.55,8h-1c-30.44,0-37.05-22.38-37.05-35.44V82.19h-12A2.52,2.52,0,0,1,0,79.67H0V62.53a4.28,4.28,0,0,1,2.84-4C18.47,53,23.37,39.37,24.1,29c.19-2.76,1.64-4.11,4-4.11H46a2.51,2.51,0,0,1,2.51,2.52v29H69.46A2.51,2.51,0,0,1,72,58.94V79.53a2.51,2.51,0,0,1-2.51,2.52h-21v33.56c0,8.43,5.55,10.75,9,10.75a25.42,25.42,0,0,0,8.16-1.73,5.41,5.41,0,0,1,3.21-.57,2.66,2.66,0,0,1,1.85,2l5.55,16.2C76.64,143.54,77,145,76.1,145.94Z"/></svg>